<svg xmlns="http://www.w3.org/2000/svg" xmlns:xlink="http://www.w3.org/1999/xlink" width="500" zoomAndPan="magnify" viewBox="0 0 375 374.999991" height="500" preserveAspectRatio="xMidYMid meet" version="1.0"><defs><g/><clipPath id="e0209259df"><path d="M 123.160156 148.703125 L 227.410156 148.703125 L 227.410156 225.953125 L 123.160156 225.953125 Z M 123.160156 148.703125 " clip-rule="nonzero"/></clipPath></defs><rect x="-37.5" width="450" fill="#ffffff" y="-37.499999" height="449.999989" fill-opacity="1"/><rect x="-37.5" width="450" fill="#000000" y="-37.499999" height="449.999989" fill-opacity="1"/><g fill="#ffffff" fill-opacity="1"><g transform="translate(208.36959, 235.499985)"><g><path d="M 62.875 -69.234375 C 60.96875 -67.222656 58.800781 -65.742188 56.375 -64.796875 C 66.75 -63.304688 74.632812 -59.625 80.03125 -53.75 C 85.425781 -47.875 88.125 -40.703125 88.125 -32.234375 C 88.125 -21.960938 83.992188 -13.648438 75.734375 -7.296875 C 67.484375 -0.953125 56.632812 2.21875 43.1875 2.21875 C 29.738281 2.21875 19.203125 -1.085938 11.578125 -7.703125 C 3.960938 -14.316406 0.15625 -23.660156 0.15625 -35.734375 C 0.15625 -36.367188 0.15625 -37.003906 0.15625 -37.640625 L 1.90625 -37.953125 C 4.019531 -22.179688 10.582031 -11.960938 21.59375 -7.296875 L 21.59375 -99.71875 C 21.382812 -102.582031 20.300781 -104.9375 18.34375 -106.78125 C 16.382812 -108.632812 14.023438 -109.5625 11.265625 -109.5625 L 9.359375 -109.5625 L 9.359375 -111.15625 L 36.046875 -111.15625 C 45.992188 -111.15625 53.957031 -108.878906 59.9375 -104.328125 C 65.925781 -99.773438 68.921875 -93.816406 68.921875 -86.453125 C 68.921875 -79.097656 66.90625 -73.359375 62.875 -69.234375 Z M 31.921875 -106.078125 L 31.921875 -4.453125 C 35.410156 -3.921875 39.429688 -3.65625 43.984375 -3.65625 C 54.148438 -3.65625 62.0625 -6.378906 67.71875 -11.828125 C 73.382812 -17.285156 76.21875 -24.351562 76.21875 -33.03125 C 76.21875 -37.6875 75.34375 -41.8125 73.59375 -45.40625 C 71.851562 -49.007812 69.660156 -51.816406 67.015625 -53.828125 C 60.023438 -59.234375 50.175781 -61.9375 37.46875 -61.9375 C 37.363281 -61.9375 37.3125 -61.9375 37.3125 -61.9375 L 37.15625 -63.359375 C 37.257812 -63.359375 37.3125 -63.359375 37.3125 -63.359375 C 42.707031 -63.359375 47.335938 -65.128906 51.203125 -68.671875 C 55.066406 -72.222656 57 -77.703125 57 -85.109375 C 57 -99.085938 49.328125 -106.078125 33.984375 -106.078125 Z M 31.921875 -106.078125 "/></g></g></g><g fill="#ffffff" fill-opacity="1"><g transform="translate(56.541515, 235.499985)"><g><path d="M 42.234375 -1.59375 L 44.296875 -1.59375 L 44.296875 0 L 9.53125 0 L 9.53125 -1.59375 L 11.59375 -1.59375 C 14.34375 -1.59375 16.695312 -2.570312 18.65625 -4.53125 C 20.613281 -6.488281 21.644531 -8.84375 21.75 -11.59375 L 21.75 -99.71875 C 21.644531 -102.476562 20.613281 -104.804688 18.65625 -106.703125 C 16.695312 -108.609375 14.34375 -109.5625 11.59375 -109.5625 L 9.53125 -109.5625 L 9.53125 -111.15625 L 44.296875 -111.15625 L 44.296875 -109.5625 L 42.234375 -109.5625 C 39.484375 -109.5625 37.128906 -108.609375 35.171875 -106.703125 C 33.210938 -104.804688 32.179688 -102.476562 32.078125 -99.71875 L 32.078125 -11.59375 C 32.078125 -8.84375 33.082031 -6.488281 35.09375 -4.53125 C 37.101562 -2.570312 39.484375 -1.59375 42.234375 -1.59375 Z M 152.28125 23.8125 L 152.28125 25.40625 C 148.257812 26.363281 144.238281 26.84375 140.21875 26.84375 C 122.851562 26.84375 106.019531 18.160156 89.71875 0.796875 L 37.15625 -55.265625 L 74.640625 -102.265625 C 75.484375 -103.328125 75.90625 -104.28125 75.90625 -105.125 C 75.90625 -105.96875 75.742188 -106.707031 75.421875 -107.34375 C 74.578125 -108.9375 73.046875 -109.734375 70.828125 -109.734375 L 69.234375 -109.734375 L 69.234375 -111.15625 L 102.734375 -111.15625 L 102.734375 -109.734375 L 102.109375 -109.734375 C 95.117188 -109.734375 89.398438 -107.242188 84.953125 -102.265625 L 47.953125 -59.546875 L 101.953125 -1.90625 C 108.929688 5.613281 116.785156 11.78125 125.515625 16.59375 C 134.253906 21.40625 143.175781 23.8125 152.28125 23.8125 Z M 152.28125 23.8125 "/></g></g></g><g clip-path="url(#e0209259df)"><path fill="#ffffff" d="M 196.078125 176.0625 L 221.328125 176.0625 L 179.429688 217.757812 Z M 175.222656 219.960938 L 157.609375 176.0625 L 192.742188 176.0625 Z M 129.117188 176.0625 L 154.304688 176.0625 L 171.015625 217.726562 Z M 160.730469 153.902344 L 154.226562 172.988281 L 130.6875 172.988281 Z M 150.796875 151.792969 L 158.292969 151.792969 L 136.96875 165.339844 Z M 172.660156 159.195312 L 158.449219 170.164062 L 164.359375 152.785156 Z M 182.238281 151.792969 L 175.175781 157.238281 L 168.117188 151.792969 Z M 190.507812 172.988281 L 159.859375 172.988281 L 175.191406 161.148438 Z M 191.917969 170.164062 L 177.703125 159.195312 L 185.992188 152.785156 Z M 219.757812 172.988281 L 196.140625 172.988281 L 189.640625 153.902344 Z M 199.648438 151.792969 L 213.519531 165.386719 L 192.074219 151.792969 Z M 200.90625 148.703125 L 149.539062 148.703125 L 123.175781 174.511719 L 175.222656 226.292969 L 227.269531 174.511719 L 200.90625 148.703125 " fill-opacity="1" fill-rule="nonzero"/></g><path fill="#000000" d="M 122.289062 166.265625 L 222.746094 166.265625 C 224.058594 166.265625 225.316406 166.785156 226.246094 167.714844 C 227.175781 168.644531 227.695312 169.902344 227.695312 171.214844 L 227.695312 181.121094 C 227.695312 182.433594 227.175781 183.691406 226.246094 184.621094 C 225.316406 185.550781 224.058594 186.070312 222.746094 186.070312 L 122.289062 186.070312 C 119.554688 186.070312 117.335938 183.855469 117.335938 181.121094 L 117.335938 171.214844 C 117.335938 168.480469 119.554688 166.265625 122.289062 166.265625 Z M 122.289062 166.265625 " fill-opacity="1" fill-rule="nonzero"/><g fill="#ffffff" fill-opacity="1"><g transform="translate(125.802975, 179.918395)"><g><path d="M 2.40625 0.125 C 1.71875 0.125 1.128906 -0.0351562 0.640625 -0.359375 C 0.160156 -0.679688 -0.164062 -1.148438 -0.34375 -1.765625 L 1.265625 -2.46875 C 1.378906 -2.1875 1.523438 -1.972656 1.703125 -1.828125 C 1.878906 -1.679688 2.101562 -1.609375 2.375 -1.609375 C 2.65625 -1.609375 2.875 -1.695312 3.03125 -1.875 C 3.1875 -2.050781 3.265625 -2.316406 3.265625 -2.671875 L 3.265625 -8.53125 L 5.234375 -8.53125 L 5.234375 -2.890625 C 5.234375 -1.941406 4.988281 -1.203125 4.5 -0.671875 C 4.007812 -0.140625 3.3125 0.125 2.40625 0.125 Z M 2.40625 0.125 "/></g></g></g><g fill="#ffffff" fill-opacity="1"><g transform="translate(139.138797, 179.918395)"><g><path d="M 4.734375 0.125 C 3.835938 0.125 3.066406 -0.0390625 2.421875 -0.375 C 1.785156 -0.707031 1.296875 -1.191406 0.953125 -1.828125 C 0.609375 -2.460938 0.4375 -3.222656 0.4375 -4.109375 C 0.4375 -4.992188 0.617188 -5.78125 0.984375 -6.46875 C 1.347656 -7.15625 1.859375 -7.691406 2.515625 -8.078125 C 3.179688 -8.460938 3.972656 -8.65625 4.890625 -8.65625 C 5.703125 -8.65625 6.410156 -8.476562 7.015625 -8.125 C 7.628906 -7.769531 8.101562 -7.273438 8.4375 -6.640625 C 8.78125 -6.015625 8.953125 -5.28125 8.953125 -4.4375 C 8.953125 -3.519531 8.769531 -2.71875 8.40625 -2.03125 C 8.050781 -1.351562 7.550781 -0.828125 6.90625 -0.453125 C 6.269531 -0.078125 5.546875 0.113281 4.734375 0.125 Z M 4.65625 -1.625 C 5.34375 -1.625 5.894531 -1.867188 6.3125 -2.359375 C 6.738281 -2.847656 6.953125 -3.53125 6.953125 -4.40625 C 6.953125 -5.164062 6.757812 -5.769531 6.375 -6.21875 C 5.988281 -6.675781 5.472656 -6.90625 4.828125 -6.90625 C 4.359375 -6.90625 3.941406 -6.789062 3.578125 -6.5625 C 3.222656 -6.332031 2.941406 -6.007812 2.734375 -5.59375 C 2.523438 -5.175781 2.421875 -4.691406 2.421875 -4.140625 C 2.421875 -3.335938 2.617188 -2.71875 3.015625 -2.28125 C 3.410156 -1.84375 3.957031 -1.625 4.65625 -1.625 Z M 4.65625 -1.625 "/></g></g></g><g fill="#ffffff" fill-opacity="1"><g transform="translate(155.837889, 179.918395)"><g><path d="M 7.609375 -8.53125 L 4.671875 -3.8125 L 4.671875 0 L 2.703125 0 L 2.703125 -3.734375 L -0.328125 -8.53125 L 1.875 -8.53125 L 3.765625 -5.515625 L 5.546875 -8.53125 Z M 7.609375 -8.53125 "/></g></g></g><g fill="#ffffff" fill-opacity="1"><g transform="translate(170.495, 179.918395)"><g><path d="M 6.640625 -6.84375 L 2.734375 -6.84375 L 2.734375 -5.140625 L 6.390625 -5.140625 L 6.390625 -3.453125 L 2.734375 -3.453125 L 2.734375 -1.6875 L 6.765625 -1.6875 L 6.640625 0 L 0.8125 0 L 0.8125 -8.53125 L 6.640625 -8.53125 Z M 6.640625 -6.84375 "/></g></g></g><g fill="#ffffff" fill-opacity="1"><g transform="translate(184.767738, 179.918395)"><g><path d="M 7.921875 -1.84375 L 8.375 -0.328125 C 8.195312 -0.191406 7.96875 -0.0820312 7.6875 0 C 7.414062 0.0820312 7.132812 0.125 6.84375 0.125 C 6.320312 0.125 5.863281 0.0195312 5.46875 -0.1875 C 5.082031 -0.40625 4.757812 -0.71875 4.5 -1.125 L 3.484375 -2.765625 C 3.359375 -2.953125 3.238281 -3.082031 3.125 -3.15625 C 3.007812 -3.238281 2.878906 -3.285156 2.734375 -3.296875 L 2.734375 0 L 0.8125 0 L 0.8125 -8.53125 L 3.609375 -8.53125 C 4.785156 -8.53125 5.664062 -8.289062 6.25 -7.8125 C 6.84375 -7.34375 7.140625 -6.691406 7.140625 -5.859375 C 7.140625 -5.203125 6.9375 -4.664062 6.53125 -4.25 C 6.125 -3.832031 5.601562 -3.5625 4.96875 -3.4375 C 5.238281 -3.3125 5.472656 -3.097656 5.671875 -2.796875 L 6.078125 -2.171875 C 6.335938 -1.785156 6.675781 -1.59375 7.09375 -1.59375 C 7.238281 -1.59375 7.378906 -1.609375 7.515625 -1.640625 C 7.648438 -1.679688 7.785156 -1.75 7.921875 -1.84375 Z M 3.5 -6.9375 L 2.734375 -6.9375 L 2.734375 -4.8125 L 3.484375 -4.8125 C 4.085938 -4.8125 4.519531 -4.894531 4.78125 -5.0625 C 5.039062 -5.238281 5.171875 -5.515625 5.171875 -5.890625 C 5.171875 -6.253906 5.023438 -6.519531 4.734375 -6.6875 C 4.441406 -6.851562 4.03125 -6.9375 3.5 -6.9375 Z M 3.5 -6.9375 "/></g></g></g><g fill="#ffffff" fill-opacity="1"><g transform="translate(199.965376, 179.918395)"><g><path d="M 0.8125 0 L 0.8125 -8.53125 L 2.765625 -8.53125 L 2.765625 0 Z M 0.984375 -9.296875 L 2.453125 -11.421875 L 4.328125 -10.953125 L 2.59375 -9.296875 Z M 0.984375 -9.296875 "/></g></g></g><g fill="#ffffff" fill-opacity="1"><g transform="translate(210.850824, 179.918395)"><g><path d="M -0.28125 0 L 3.40625 -8.53125 L 5.0625 -8.53125 L 8.609375 0 L 6.625 0 L 5.9375 -1.75 L 2.421875 -1.75 L 1.703125 0 Z M 3.09375 -3.375 L 5.28125 -3.375 L 4.203125 -6.125 Z M 3.09375 -3.375 "/></g></g></g></svg>